<svg version="1.1" xmlns="http://www.w3.org/2000/svg" xmlns:xlink="http://www.w3.org/1999/xlink" width="840.75390625" height="245"><defs/><g><g transform="translate(-254,-878) scale(1,1)"><rect fill="#C0C0C0" stroke="none" x="271" y="895" width="385.60009765625" height="225" opacity="0.2"/></g><g transform="translate(-254,-878) scale(1,1)"><rect fill="#ffffff" stroke="none" x="264" y="888" width="385.60009765625" height="225"/></g><g transform="translate(-254,-878) scale(1,1)"><path fill="none" stroke="#000000" d="M 264 888 L 649.60009765625 888 L 649.60009765625 1113 L 264 1113 L 264 888 Z Z" stroke-miterlimit="10"/></g><g transform="translate(-254,-878) scale(1,1)"><path fill="none" stroke="#000000" d="M 264 926 L 649.60009765625 926" stroke-miterlimit="10"/></g><g transform="translate(-254,-878) scale(1,1)"><g><path fill="none" stroke="none"/><text fill="#000000" stroke="none" font-family="Arial" font-size="13px" font-style="normal" font-weight="normal" text-decoration="none" x="424.6396484375" y="905.5">«interface»</text></g></g><g transform="translate(-254,-878) scale(1,1)"><g><path fill="none" stroke="none"/><text fill="#000000" stroke="none" font-family="Arial" font-size="13px" font-style="normal" font-weight="bold" text-decoration="none" x="417.05419921875" y="920.5">EventUpdater</text></g></g><g transform="translate(-254,-878) scale(1,1)"><g><path fill="none" stroke="none"/><text fill="#000000" stroke="none" font-family="Arial" font-size="13px" font-style="normal" font-weight="normal" text-decoration="none" x="269" y="943.5">+sendAck()</text></g></g><g transform="translate(-254,-878) scale(1,1)"><g><path fill="none" stroke="none"/><text fill="#000000" stroke="none" font-family="Arial" font-size="13px" font-style="normal" font-weight="normal" text-decoration="none" x="269" y="958.5">+sendAction(action: String)</text></g></g><g transform="translate(-254,-878) scale(1,1)"><g><path fill="none" stroke="none"/><text fill="#000000" stroke="none" font-family="Arial" font-size="13px" font-style="normal" font-weight="normal" text-decoration="none" x="269" y="973.5">+sendDirection(direction: String)</text></g></g><g transform="translate(-254,-878) scale(1,1)"><g><path fill="none" stroke="none"/><text fill="#000000" stroke="none" font-family="Arial" font-size="13px" font-style="normal" font-weight="normal" text-decoration="none" x="269" y="988.5">+sendEffect(effect: String)</text></g></g><g transform="translate(-254,-878) scale(1,1)"><g><path fill="none" stroke="none"/><text fill="#000000" stroke="none" font-family="Arial" font-size="13px" font-style="normal" font-weight="normal" text-decoration="none" x="269" y="1003.5">+sendPlayers(players: List&lt;String&gt;)</text></g></g><g transform="translate(-254,-878) scale(1,1)"><g><path fill="none" stroke="none"/><text fill="#000000" stroke="none" font-family="Arial" font-size="13px" font-style="normal" font-weight="normal" text-decoration="none" x="269" y="1018.5">+sendPowerUp(powerUp: List&lt;ViewPowerUp&gt;, discard: boolean)</text></g></g><g transform="translate(-254,-878) scale(1,1)"><g><path fill="none" stroke="none"/><text fill="#000000" stroke="none" font-family="Arial" font-size="13px" font-style="normal" font-weight="normal" text-decoration="none" x="269" y="1033.5">+sendRoom(room: String)</text></g></g><g transform="translate(-254,-878) scale(1,1)"><g><path fill="none" stroke="none"/><text fill="#000000" stroke="none" font-family="Arial" font-size="13px" font-style="normal" font-weight="normal" text-decoration="none" x="269" y="1048.5">+sendTiles(tiles: List&lt;ViewTileCoords&gt;)</text></g></g><g transform="translate(-254,-878) scale(1,1)"><g><path fill="none" stroke="none"/><text fill="#000000" stroke="none" font-family="Arial" font-size="13px" font-style="normal" font-weight="normal" text-decoration="none" x="269" y="1063.5">+sendWeapon(weapon: String)</text></g></g><g transform="translate(-254,-878) scale(1,1)"><g><path fill="none" stroke="none"/><text fill="#000000" stroke="none" font-family="Arial" font-size="13px" font-style="normal" font-weight="normal" text-decoration="none" x="269" y="1078.5">+sendStop()</text></g></g><g transform="translate(-254,-878) scale(1,1)"><g><path fill="none" stroke="none"/><text fill="#000000" stroke="none" font-family="Arial" font-size="13px" font-style="normal" font-weight="normal" text-decoration="none" x="269" y="1093.5">+sendAmmo(ammo: String)</text></g></g><g transform="translate(-254,-878) scale(1,1)"><g><path fill="none" stroke="none"/><text fill="#000000" stroke="none" font-family="Arial" font-size="13px" font-style="normal" font-weight="normal" text-decoration="none" x="269" y="1108.5">+login(view, nickname, password, existingGame, mode)</text></g></g><g transform="translate(-254,-878) scale(1,1)"><rect fill="#C0C0C0" stroke="none" x="751" y="895" width="340.75390625" height="224" opacity="0.2"/></g><g transform="translate(-254,-878) scale(1,1)"><rect fill="#ffffff" stroke="none" x="744" y="888" width="340.75390625" height="224"/></g><g transform="translate(-254,-878) scale(1,1)"><path fill="none" stroke="#000000" d="M 744 888 L 1084.75390625 888 L 1084.75390625 1112 L 744 1112 L 744 888 Z Z" stroke-miterlimit="10"/></g><g transform="translate(-254,-878) scale(1,1)"><path fill="none" stroke="#000000" d="M 744 926 L 1084.75390625 926" stroke-miterlimit="10"/></g><g transform="translate(-254,-878) scale(1,1)"><g><path fill="none" stroke="none"/><text fill="#000000" stroke="none" font-family="Arial" font-size="13px" font-style="normal" font-weight="normal" text-decoration="none" x="882.216552734375" y="905.5">«interface»</text></g></g><g transform="translate(-254,-878) scale(1,1)"><g><path fill="none" stroke="none"/><text fill="#000000" stroke="none" font-family="Arial" font-size="13px" font-style="normal" font-weight="bold" text-decoration="none" x="833.80615234375" y="920.5">RequestDispatcherInterface</text></g></g><g transform="translate(-254,-878) scale(1,1)"><g><path fill="none" stroke="none"/><text fill="#000000" stroke="none" font-family="Arial" font-size="13px" font-style="normal" font-weight="normal" text-decoration="none" x="749" y="943.5">+receiveAck()</text></g></g><g transform="translate(-254,-878) scale(1,1)"><g><path fill="none" stroke="none"/><text fill="#000000" stroke="none" font-family="Arial" font-size="13px" font-style="normal" font-weight="normal" text-decoration="none" x="749" y="958.5">+receiveAction(subAction: String)</text></g></g><g transform="translate(-254,-878) scale(1,1)"><g><path fill="none" stroke="none"/><text fill="#000000" stroke="none" font-family="Arial" font-size="13px" font-style="normal" font-weight="normal" text-decoration="none" x="749" y="973.5">+receiveAmmo(ammo: String)</text></g></g><g transform="translate(-254,-878) scale(1,1)"><g><path fill="none" stroke="none"/><text fill="#000000" stroke="none" font-family="Arial" font-size="13px" font-style="normal" font-weight="normal" text-decoration="none" x="749" y="988.5">+receiveDirection(direction: String)</text></g></g><g transform="translate(-254,-878) scale(1,1)"><g><path fill="none" stroke="none"/><text fill="#000000" stroke="none" font-family="Arial" font-size="13px" font-style="normal" font-weight="normal" text-decoration="none" x="749" y="1003.5">+receiveEffect(effect: String)</text></g></g><g transform="translate(-254,-878) scale(1,1)"><g><path fill="none" stroke="none"/><text fill="#000000" stroke="none" font-family="Arial" font-size="13px" font-style="normal" font-weight="normal" text-decoration="none" x="749" y="1018.5">+receivePlayers(players: ArrayList&lt;String&gt;)</text></g></g><g transform="translate(-254,-878) scale(1,1)"><g><path fill="none" stroke="none"/><text fill="#000000" stroke="none" font-family="Arial" font-size="13px" font-style="normal" font-weight="normal" text-decoration="none" x="749" y="1033.5">+receivePowerUps(powerUps: ArrayList&lt;ViewPowerUp&gt;)</text></g></g><g transform="translate(-254,-878) scale(1,1)"><g><path fill="none" stroke="none"/><text fill="#000000" stroke="none" font-family="Arial" font-size="13px" font-style="normal" font-weight="normal" text-decoration="none" x="749" y="1048.5">+receiveRoom(room: String)</text></g></g><g transform="translate(-254,-878) scale(1,1)"><g><path fill="none" stroke="none"/><text fill="#000000" stroke="none" font-family="Arial" font-size="13px" font-style="normal" font-weight="normal" text-decoration="none" x="749" y="1063.5">+receiveStopAction()</text></g></g><g transform="translate(-254,-878) scale(1,1)"><g><path fill="none" stroke="none"/><text fill="#000000" stroke="none" font-family="Arial" font-size="13px" font-style="normal" font-weight="normal" text-decoration="none" x="749" y="1078.5">+receiveTiles(viewTiles: ArrayList&lt;ViewTileCoords&gt;)</text></g></g><g transform="translate(-254,-878) scale(1,1)"><g><path fill="none" stroke="none"/><text fill="#000000" stroke="none" font-family="Arial" font-size="13px" font-style="normal" font-weight="normal" text-decoration="none" x="749" y="1093.5">+receiveWeapon(weapon: String)</text></g></g><g transform="translate(-254,-878) scale(1,1)"><path fill="none" stroke="#000000" d="M 651 1000 L 743 1000" stroke-miterlimit="10"/></g><g transform="translate(-254,-878) scale(1,1)"><path fill="none" stroke="#000000" d="M 732.8373251423759 1004.209517756016 L 743 1000 L 732.8373251423758 995.790482243984" stroke-miterlimit="10"/></g></g></svg>