<svg version="1.1" xmlns="http://www.w3.org/2000/svg" xmlns:xlink="http://www.w3.org/1999/xlink" width="1021.75244140625" height="639"><defs/><g><g transform="translate(-254,-878) scale(1,1)"><rect fill="#C0C0C0" stroke="none" x="271" y="895" width="336" height="225" opacity="0.2"/></g><g transform="translate(-254,-878) scale(1,1)"><rect fill="#ffffff" stroke="none" x="264" y="888" width="336" height="225"/></g><g transform="translate(-254,-878) scale(1,1)"><path fill="none" stroke="#000000" d="M 264 888 L 600 888 L 600 1113 L 264 1113 L 264 888 Z Z" stroke-miterlimit="10"/></g><g transform="translate(-254,-878) scale(1,1)"><path fill="none" stroke="#000000" d="M 264 926 L 600 926" stroke-miterlimit="10"/></g><g transform="translate(-254,-878) scale(1,1)"><g><path fill="none" stroke="none"/><text fill="#000000" stroke="none" font-family="Arial" font-size="13px" font-style="normal" font-weight="normal" text-decoration="none" x="399.839599609375" y="905.5">«interface»</text></g></g><g transform="translate(-254,-878) scale(1,1)"><g><path fill="none" stroke="none"/><text fill="#000000" stroke="none" font-family="Arial" font-size="13px" font-style="normal" font-weight="bold" text-decoration="none" x="392.254150390625" y="920.5">EventUpdater</text></g></g><g transform="translate(-254,-878) scale(1,1)"><g><path fill="none" stroke="none"/><text fill="#000000" stroke="none" font-family="Arial" font-size="13px" font-style="normal" font-weight="normal" text-decoration="none" x="269" y="943.5">+sendAck()</text></g></g><g transform="translate(-254,-878) scale(1,1)"><g><path fill="none" stroke="none"/><text fill="#000000" stroke="none" font-family="Arial" font-size="13px" font-style="normal" font-weight="normal" text-decoration="none" x="269" y="958.5">+sendAction(action: String)</text></g></g><g transform="translate(-254,-878) scale(1,1)"><g><path fill="none" stroke="none"/><text fill="#000000" stroke="none" font-family="Arial" font-size="13px" font-style="normal" font-weight="normal" text-decoration="none" x="269" y="973.5">+sendDirection(direction: String)</text></g></g><g transform="translate(-254,-878) scale(1,1)"><g><path fill="none" stroke="none"/><text fill="#000000" stroke="none" font-family="Arial" font-size="13px" font-style="normal" font-weight="normal" text-decoration="none" x="269" y="988.5">+sendEffect(effect: String)</text></g></g><g transform="translate(-254,-878) scale(1,1)"><g><path fill="none" stroke="none"/><text fill="#000000" stroke="none" font-family="Arial" font-size="13px" font-style="normal" font-weight="normal" text-decoration="none" x="269" y="1003.5">+sendPlayers(players: List&lt;String&gt;)</text></g></g><g transform="translate(-254,-878) scale(1,1)"><g><path fill="none" stroke="none"/><text fill="#000000" stroke="none" font-family="Arial" font-size="13px" font-style="normal" font-weight="normal" text-decoration="none" x="269" y="1018.5">+sendPowerUps(powerUps, discard)</text></g></g><g transform="translate(-254,-878) scale(1,1)"><g><path fill="none" stroke="none"/><text fill="#000000" stroke="none" font-family="Arial" font-size="13px" font-style="normal" font-weight="normal" text-decoration="none" x="269" y="1033.5">+sendRoom(room: String)</text></g></g><g transform="translate(-254,-878) scale(1,1)"><g><path fill="none" stroke="none"/><text fill="#000000" stroke="none" font-family="Arial" font-size="13px" font-style="normal" font-weight="normal" text-decoration="none" x="269" y="1048.5">+sendTiles(tiles: List&lt;ViewTileCoords&gt;)</text></g></g><g transform="translate(-254,-878) scale(1,1)"><g><path fill="none" stroke="none"/><text fill="#000000" stroke="none" font-family="Arial" font-size="13px" font-style="normal" font-weight="normal" text-decoration="none" x="269" y="1063.5">+sendWeapon(weapon: String)</text></g></g><g transform="translate(-254,-878) scale(1,1)"><g><path fill="none" stroke="none"/><text fill="#000000" stroke="none" font-family="Arial" font-size="13px" font-style="normal" font-weight="normal" text-decoration="none" x="269" y="1078.5">+sendStop()</text></g></g><g transform="translate(-254,-878) scale(1,1)"><g><path fill="none" stroke="none"/><text fill="#000000" stroke="none" font-family="Arial" font-size="13px" font-style="normal" font-weight="normal" text-decoration="none" x="269" y="1093.5">+sendAmmo(ammo: String)</text></g></g><g transform="translate(-254,-878) scale(1,1)"><g><path fill="none" stroke="none"/><text fill="#000000" stroke="none" font-family="Arial" font-size="13px" font-style="normal" font-weight="normal" text-decoration="none" x="269" y="1108.5">+login(view, nickname, password, existingGame, mode)</text></g></g><g transform="translate(-254,-878) scale(1,1)"><rect fill="#C0C0C0" stroke="none" x="663" y="895" width="340.75390625" height="224" opacity="0.2"/></g><g transform="translate(-254,-878) scale(1,1)"><rect fill="#ffffff" stroke="none" x="656" y="888" width="340.75390625" height="224"/></g><g transform="translate(-254,-878) scale(1,1)"><path fill="none" stroke="#000000" d="M 656 888 L 996.75390625 888 L 996.75390625 1112 L 656 1112 L 656 888 Z Z" stroke-miterlimit="10"/></g><g transform="translate(-254,-878) scale(1,1)"><path fill="none" stroke="#000000" d="M 656 926 L 996.75390625 926" stroke-miterlimit="10"/></g><g transform="translate(-254,-878) scale(1,1)"><g><path fill="none" stroke="none"/><text fill="#000000" stroke="none" font-family="Arial" font-size="13px" font-style="normal" font-weight="normal" text-decoration="none" x="794.216552734375" y="905.5">«interface»</text></g></g><g transform="translate(-254,-878) scale(1,1)"><g><path fill="none" stroke="none"/><text fill="#000000" stroke="none" font-family="Arial" font-size="13px" font-style="normal" font-weight="bold" text-decoration="none" x="745.80615234375" y="920.5">RequestDispatcherInterface</text></g></g><g transform="translate(-254,-878) scale(1,1)"><g><path fill="none" stroke="none"/><text fill="#000000" stroke="none" font-family="Arial" font-size="13px" font-style="normal" font-weight="normal" text-decoration="none" x="661" y="943.5">+receiveAck()</text></g></g><g transform="translate(-254,-878) scale(1,1)"><g><path fill="none" stroke="none"/><text fill="#000000" stroke="none" font-family="Arial" font-size="13px" font-style="normal" font-weight="normal" text-decoration="none" x="661" y="958.5">+receiveAction(subAction: String)</text></g></g><g transform="translate(-254,-878) scale(1,1)"><g><path fill="none" stroke="none"/><text fill="#000000" stroke="none" font-family="Arial" font-size="13px" font-style="normal" font-weight="normal" text-decoration="none" x="661" y="973.5">+receiveAmmo(ammo: String)</text></g></g><g transform="translate(-254,-878) scale(1,1)"><g><path fill="none" stroke="none"/><text fill="#000000" stroke="none" font-family="Arial" font-size="13px" font-style="normal" font-weight="normal" text-decoration="none" x="661" y="988.5">+receiveDirection(direction: String)</text></g></g><g transform="translate(-254,-878) scale(1,1)"><g><path fill="none" stroke="none"/><text fill="#000000" stroke="none" font-family="Arial" font-size="13px" font-style="normal" font-weight="normal" text-decoration="none" x="661" y="1003.5">+receiveEffect(effect: String)</text></g></g><g transform="translate(-254,-878) scale(1,1)"><g><path fill="none" stroke="none"/><text fill="#000000" stroke="none" font-family="Arial" font-size="13px" font-style="normal" font-weight="normal" text-decoration="none" x="661" y="1018.5">+receivePlayers(players: ArrayList&lt;String&gt;)</text></g></g><g transform="translate(-254,-878) scale(1,1)"><g><path fill="none" stroke="none"/><text fill="#000000" stroke="none" font-family="Arial" font-size="13px" font-style="normal" font-weight="normal" text-decoration="none" x="661" y="1033.5">+receivePowerUps(powerUps)</text></g></g><g transform="translate(-254,-878) scale(1,1)"><g><path fill="none" stroke="none"/><text fill="#000000" stroke="none" font-family="Arial" font-size="13px" font-style="normal" font-weight="normal" text-decoration="none" x="661" y="1048.5">+receiveRoom(room: String)</text></g></g><g transform="translate(-254,-878) scale(1,1)"><g><path fill="none" stroke="none"/><text fill="#000000" stroke="none" font-family="Arial" font-size="13px" font-style="normal" font-weight="normal" text-decoration="none" x="661" y="1063.5">+receiveStopAction()</text></g></g><g transform="translate(-254,-878) scale(1,1)"><g><path fill="none" stroke="none"/><text fill="#000000" stroke="none" font-family="Arial" font-size="13px" font-style="normal" font-weight="normal" text-decoration="none" x="661" y="1078.5">+receiveTiles(viewTiles: ArrayList&lt;ViewTileCoords&gt;)</text></g></g><g transform="translate(-254,-878) scale(1,1)"><g><path fill="none" stroke="none"/><text fill="#000000" stroke="none" font-family="Arial" font-size="13px" font-style="normal" font-weight="normal" text-decoration="none" x="661" y="1093.5">+receiveWeapon(weapon: String)</text></g></g><g transform="translate(-254,-878) scale(1,1)"><path fill="none" stroke="#000000" d="M 601 1000 L 655 1000" stroke-miterlimit="10"/></g><g transform="translate(-254,-878) scale(1,1)"><path fill="none" stroke="#000000" d="M 644.8373251423759 1004.209517756016 L 655 1000 L 644.8373251423758 995.790482243984" stroke-miterlimit="10"/></g><g transform="translate(-254,-878) scale(1,1)"><rect fill="#C0C0C0" stroke="none" x="495" y="1170" width="440" height="344" opacity="0.2"/></g><g transform="translate(-254,-878) scale(1,1)"><rect fill="#ffffff" stroke="none" x="488" y="1163" width="440" height="344"/></g><g transform="translate(-254,-878) scale(1,1)"><path fill="none" stroke="#000000" d="M 488 1163 L 928 1163 L 928 1507 L 488 1507 L 488 1163 Z Z" stroke-miterlimit="10"/></g><g transform="translate(-254,-878) scale(1,1)"><path fill="none" stroke="#000000" d="M 488 1188 L 928 1188" stroke-miterlimit="10"/></g><g transform="translate(-254,-878) scale(1,1)"><path fill="none" stroke="#000000" d="M 488 1331 L 928 1331" stroke-miterlimit="10"/></g><g transform="translate(-254,-878) scale(1,1)"><g><path fill="none" stroke="none"/><text fill="#000000" stroke="none" font-family="Arial" font-size="13px" font-style="normal" font-weight="bold" text-decoration="none" x="652.721435546875" y="1182.5">RequestDispatcher</text></g></g><g transform="translate(-254,-878) scale(1,1)"><g><path fill="none" stroke="none"/><text fill="#000000" stroke="none" font-family="Arial" font-size="13px" font-style="normal" font-weight="normal" text-decoration="none" x="493" y="1205.5">-acceptableTypes: AcceptableTypes</text></g></g><g transform="translate(-254,-878) scale(1,1)"><g><path fill="none" stroke="none"/><text fill="#000000" stroke="none" font-family="Arial" font-size="13px" font-style="normal" font-weight="normal" text-decoration="none" x="493" y="1220.5">-block: boolean</text></g></g><g transform="translate(-254,-878) scale(1,1)"><g><path fill="none" stroke="none"/><text fill="#000000" stroke="none" font-family="Arial" font-size="13px" font-style="normal" font-weight="normal" text-decoration="none" x="493" y="1235.5">-eventHelper: EventHelper</text></g></g><g transform="translate(-254,-878) scale(1,1)"><g><path fill="none" stroke="none"/><text fill="#000000" stroke="none" font-family="Arial" font-size="13px" font-style="normal" font-weight="normal" text-decoration="none" x="493" y="1250.5">-lastRequest: long</text></g></g><g transform="translate(-254,-878) scale(1,1)"><g><path fill="none" stroke="none"/><text fill="#000000" stroke="none" font-family="Arial" font-size="13px" font-style="normal" font-weight="normal" text-decoration="none" x="493" y="1265.5">-linkedVirtualView: View</text></g></g><g transform="translate(-254,-878) scale(1,1)"><g><path fill="none" stroke="none"/><text fill="#000000" stroke="none" font-family="Arial" font-size="13px" font-style="normal" font-weight="normal" text-decoration="none" x="493" y="1280.5">~lock: Object</text></g></g><g transform="translate(-254,-878) scale(1,1)"><g><path fill="none" stroke="none"/><text fill="#000000" stroke="none" font-family="Arial" font-size="13px" font-style="normal" font-weight="normal" text-decoration="none" x="493" y="1295.5">-networkTimeoutController: NetworkTimeoutControllerServer</text></g></g><g transform="translate(-254,-878) scale(1,1)"><g><path fill="none" stroke="none"/><text fill="#000000" stroke="none" font-family="Arial" font-size="13px" font-style="normal" font-weight="normal" text-decoration="none" x="493" y="1310.5">-observerTypes: Map&lt;ReceivingType, EventHandler&gt;</text></g></g><g transform="translate(-254,-878) scale(1,1)"><g><path fill="none" stroke="none"/><text fill="#000000" stroke="none" font-family="Arial" font-size="13px" font-style="normal" font-weight="normal" text-decoration="none" x="493" y="1325.5">-viewUpdater: ViewUpdater</text></g></g><g transform="translate(-254,-878) scale(1,1)"><g><path fill="none" stroke="none"/><text fill="#000000" stroke="none" font-family="Arial" font-size="13px" font-style="normal" font-weight="normal" text-decoration="none" x="493" y="1348.5">+block()</text></g></g><g transform="translate(-254,-878) scale(1,1)"><g><path fill="none" stroke="none"/><text fill="#000000" stroke="none" font-family="Arial" font-size="13px" font-style="normal" font-weight="normal" text-decoration="none" x="493" y="1363.5">+clear()</text></g></g><g transform="translate(-254,-878) scale(1,1)"><g><path fill="none" stroke="none"/><text fill="#000000" stroke="none" font-family="Arial" font-size="13px" font-style="normal" font-weight="normal" text-decoration="none" x="493" y="1378.5">+getLastRequest(): long</text></g></g><g transform="translate(-254,-878) scale(1,1)"><g><path fill="none" stroke="none"/><text fill="#000000" stroke="none" font-family="Arial" font-size="13px" font-style="normal" font-weight="normal" text-decoration="none" x="493" y="1393.5">+getLinkedVirtualView(): View</text></g></g><g transform="translate(-254,-878) scale(1,1)"><g><path fill="none" stroke="none"/><text fill="#000000" stroke="none" font-family="Arial" font-size="13px" font-style="normal" font-weight="normal" text-decoration="none" x="493" y="1408.5">+getObserverTypes(): Map&lt;ReceivingType, EventHandler&gt;</text></g></g><g transform="translate(-254,-878) scale(1,1)"><g><path fill="none" stroke="none"/><text fill="#000000" stroke="none" font-family="Arial" font-size="13px" font-style="normal" font-weight="normal" text-decoration="none" x="493" y="1423.5">+getViewUpdater(): ViewUpdater</text></g></g><g transform="translate(-254,-878) scale(1,1)"><g><path fill="none" stroke="none"/><text fill="#000000" stroke="none" font-family="Arial" font-size="13px" font-style="normal" font-weight="normal" text-decoration="none" x="493" y="1438.5">+RequestDispatcher(viewUpdater: ViewUpdater, linkedVirtualView: View)</text></g></g><g transform="translate(-254,-878) scale(1,1)"><g><path fill="none" stroke="none"/><text fill="#000000" stroke="none" font-family="Arial" font-size="13px" font-style="normal" font-weight="normal" text-decoration="none" x="493" y="1453.5">+setEventHelper(match, player)</text></g></g><g transform="translate(-254,-878) scale(1,1)"><g><path fill="none" stroke="none"/><text fill="#000000" stroke="none" font-family="Arial" font-size="13px" font-style="normal" font-weight="normal" text-decoration="none" x="493" y="1468.5">+setView(viewUpdater: ViewUpdater, linkedVirtualView: View)</text></g></g><g transform="translate(-254,-878) scale(1,1)"><g><path fill="none" stroke="none"/><text fill="#000000" stroke="none" font-family="Arial" font-size="13px" font-style="normal" font-weight="normal" text-decoration="none" x="493" y="1483.5">+updateView(acceptableTypes: AcceptableTypes)</text></g></g><g transform="translate(-254,-878) scale(1,1)"><g><path fill="none" stroke="none"/><text fill="#000000" stroke="none" font-family="Arial" font-size="13px" font-style="normal" font-weight="normal" text-decoration="none" x="493" y="1498.5">+updateView()</text></g></g><g transform="translate(-254,-878) scale(1,1)"><rect fill="#C0C0C0" stroke="none" x="991" y="1234" width="281.75244140625" height="216" opacity="0.2"/></g><g transform="translate(-254,-878) scale(1,1)"><rect fill="#ffffff" stroke="none" x="984" y="1227" width="281.75244140625" height="216"/></g><g transform="translate(-254,-878) scale(1,1)"><path fill="none" stroke="#000000" d="M 984 1227 L 1265.75244140625 1227 L 1265.75244140625 1443 L 984 1443 L 984 1227 Z Z" stroke-miterlimit="10"/></g><g transform="translate(-254,-878) scale(1,1)"><path fill="none" stroke="#000000" d="M 984 1265 L 1265.75244140625 1265" stroke-miterlimit="10"/></g><g transform="translate(-254,-878) scale(1,1)"><g><path fill="none" stroke="none"/><text fill="#000000" stroke="none" font-family="Arial" font-size="13px" font-style="normal" font-weight="normal" text-decoration="none" x="1092.7158203125" y="1244.5">«interface»</text></g></g><g transform="translate(-254,-878) scale(1,1)"><g><path fill="none" stroke="none"/><text fill="#000000" stroke="none" font-family="Arial" font-size="13px" font-style="normal" font-weight="bold" text-decoration="none" x="1085.4921875" y="1259.5">EventHandler</text></g></g><g transform="translate(-254,-878) scale(1,1)"><g><path fill="none" stroke="none"/><text fill="#000000" stroke="none" font-family="Arial" font-size="13px" font-style="normal" font-weight="normal" text-decoration="none" x="989" y="1282.5">+setActive(active: boolean)</text></g></g><g transform="translate(-254,-878) scale(1,1)"><g><path fill="none" stroke="none"/><text fill="#000000" stroke="none" font-family="Arial" font-size="13px" font-style="normal" font-weight="normal" text-decoration="none" x="989" y="1297.5">+receiveAction(action)</text></g></g><g transform="translate(-254,-878) scale(1,1)"><g><path fill="none" stroke="none"/><text fill="#000000" stroke="none" font-family="Arial" font-size="13px" font-style="normal" font-weight="normal" text-decoration="none" x="989" y="1312.5">+receiveDirection(direction: Direction)</text></g></g><g transform="translate(-254,-878) scale(1,1)"><g><path fill="none" stroke="none"/><text fill="#000000" stroke="none" font-family="Arial" font-size="13px" font-style="normal" font-weight="normal" text-decoration="none" x="989" y="1327.5">+receiveEffect(effect: String)</text></g></g><g transform="translate(-254,-878) scale(1,1)"><g><path fill="none" stroke="none"/><text fill="#000000" stroke="none" font-family="Arial" font-size="13px" font-style="normal" font-weight="normal" text-decoration="none" x="989" y="1342.5">+receivePlayer(players: List&lt;Player&gt;)</text></g></g><g transform="translate(-254,-878) scale(1,1)"><g><path fill="none" stroke="none"/><text fill="#000000" stroke="none" font-family="Arial" font-size="13px" font-style="normal" font-weight="normal" text-decoration="none" x="989" y="1357.5">+receivePowerUps(powerUps: List&lt;PowerUp&gt;)</text></g></g><g transform="translate(-254,-878) scale(1,1)"><g><path fill="none" stroke="none"/><text fill="#000000" stroke="none" font-family="Arial" font-size="13px" font-style="normal" font-weight="normal" text-decoration="none" x="989" y="1372.5">+receiveRoom(color: String)</text></g></g><g transform="translate(-254,-878) scale(1,1)"><g><path fill="none" stroke="none"/><text fill="#000000" stroke="none" font-family="Arial" font-size="13px" font-style="normal" font-weight="normal" text-decoration="none" x="989" y="1387.5">+receiveStop()</text></g></g><g transform="translate(-254,-878) scale(1,1)"><g><path fill="none" stroke="none"/><text fill="#000000" stroke="none" font-family="Arial" font-size="13px" font-style="normal" font-weight="normal" text-decoration="none" x="989" y="1402.5">+receiveTiles(tiles: List&lt;Tile&gt;)</text></g></g><g transform="translate(-254,-878) scale(1,1)"><g><path fill="none" stroke="none"/><text fill="#000000" stroke="none" font-family="Arial" font-size="13px" font-style="normal" font-weight="normal" text-decoration="none" x="989" y="1417.5">+receiveWeapon(weapon)</text></g></g><g transform="translate(-254,-878) scale(1,1)"><g><path fill="none" stroke="none"/><text fill="#000000" stroke="none" font-family="Arial" font-size="13px" font-style="normal" font-weight="normal" text-decoration="none" x="989" y="1432.5">+receiveAmmo(ammo)</text></g></g><g transform="translate(-254,-878) scale(1,1)"><path fill="none" stroke="#000000" d="M 983 1335 L 929 1335" stroke-miterlimit="10"/></g><g transform="translate(-254,-878) scale(1,1)"><path fill="#FFFFFF" stroke="none" d="M 939.1626748576241 1330.7904822439841 L 929 1335 L 939.1626748576241 1339.2095177560159 L 951 1335"/></g><g transform="translate(-254,-878) scale(1,1)"><path fill="none" stroke="#000000" d="M 939.1626748576241 1330.7904822439841 L 929 1335 L 939.1626748576241 1339.2095177560159 L 951 1335 L 939.1626748576241 1330.7904822439841" stroke-miterlimit="10"/></g><g transform="translate(-254,-878) scale(1,1)"><path fill="none" stroke="#000000" d="M 769 1162 L 786 1113" stroke-miterlimit="10" stroke-dasharray="3"/></g><g transform="translate(-254,-878) scale(1,1)"><path fill="#FFFFFF" stroke="none" d="M 787.2918446687917 1134.962038551822 L 786 1113 L 771.3839657368686 1129.442978514216"/></g><g transform="translate(-254,-878) scale(1,1)"><path fill="none" stroke="#000000" d="M 787.2918446687917 1134.962038551822 L 786 1113 L 771.3839657368686 1129.442978514216 L 787.2918446687917 1134.962038551822" stroke-miterlimit="10"/></g></g></svg>