<svg version="1.1" xmlns="http://www.w3.org/2000/svg" xmlns:xlink="http://www.w3.org/1999/xlink" width="1021.50244140625" height="644"><defs/><g><g transform="translate(-278,-14) scale(1,1)"><rect fill="#C0C0C0" stroke="none" x="919" y="31" width="289.75244140625" height="225" opacity="0.2"/></g><g transform="translate(-278,-14) scale(1,1)"><rect fill="#ffffff" stroke="none" x="912" y="24" width="289.75244140625" height="225"/></g><g transform="translate(-278,-14) scale(1,1)"><path fill="none" stroke="#000000" d="M 912 24 L 1201.75244140625 24 L 1201.75244140625 249 L 912 249 L 912 24 Z Z" stroke-miterlimit="10"/></g><g transform="translate(-278,-14) scale(1,1)"><path fill="none" stroke="#000000" d="M 912 62 L 1201.75244140625 62" stroke-miterlimit="10"/></g><g transform="translate(-278,-14) scale(1,1)"><g><path fill="none" stroke="none"/><text fill="#000000" stroke="none" font-family="Arial" font-size="13px" font-style="normal" font-weight="normal" text-decoration="none" x="1024.7158203125" y="41.5">«interface»</text></g></g><g transform="translate(-278,-14) scale(1,1)"><g><path fill="none" stroke="none"/><text fill="#000000" stroke="none" font-family="Arial" font-size="13px" font-style="normal" font-weight="bold" text-decoration="none" x="1017.4921875" y="56.5">EventHandler</text></g></g><g transform="translate(-278,-14) scale(1,1)"><g><path fill="none" stroke="none"/><text fill="#000000" stroke="none" font-family="Arial" font-size="13px" font-style="normal" font-weight="normal" text-decoration="none" x="917" y="79.5">+setActive(active: boolean)</text></g></g><g transform="translate(-278,-14) scale(1,1)"><g><path fill="none" stroke="none"/><text fill="#000000" stroke="none" font-family="Arial" font-size="13px" font-style="normal" font-weight="normal" text-decoration="none" x="917" y="94.5">+receiveAction(action)</text></g></g><g transform="translate(-278,-14) scale(1,1)"><g><path fill="none" stroke="none"/><text fill="#000000" stroke="none" font-family="Arial" font-size="13px" font-style="normal" font-weight="normal" text-decoration="none" x="917" y="109.5">+receiveDirection(direction: Direction)</text></g></g><g transform="translate(-278,-14) scale(1,1)"><g><path fill="none" stroke="none"/><text fill="#000000" stroke="none" font-family="Arial" font-size="13px" font-style="normal" font-weight="normal" text-decoration="none" x="917" y="124.5">+receiveEffect(effect: String)</text></g></g><g transform="translate(-278,-14) scale(1,1)"><g><path fill="none" stroke="none"/><text fill="#000000" stroke="none" font-family="Arial" font-size="13px" font-style="normal" font-weight="normal" text-decoration="none" x="917" y="139.5">+receivePlayer(players: List&lt;Player&gt;)</text></g></g><g transform="translate(-278,-14) scale(1,1)"><g><path fill="none" stroke="none"/><text fill="#000000" stroke="none" font-family="Arial" font-size="13px" font-style="normal" font-weight="normal" text-decoration="none" x="917" y="154.5">+receivePowerUps(powerUps: List&lt;PowerUp&gt;)</text></g></g><g transform="translate(-278,-14) scale(1,1)"><g><path fill="none" stroke="none"/><text fill="#000000" stroke="none" font-family="Arial" font-size="13px" font-style="normal" font-weight="normal" text-decoration="none" x="917" y="169.5">+receiveRoom(color: String)</text></g></g><g transform="translate(-278,-14) scale(1,1)"><g><path fill="none" stroke="none"/><text fill="#000000" stroke="none" font-family="Arial" font-size="13px" font-style="normal" font-weight="normal" text-decoration="none" x="917" y="184.5">+receiveStop()</text></g></g><g transform="translate(-278,-14) scale(1,1)"><g><path fill="none" stroke="none"/><text fill="#000000" stroke="none" font-family="Arial" font-size="13px" font-style="normal" font-weight="normal" text-decoration="none" x="917" y="199.5">+receiveTiles(tiles: List&lt;Tile&gt;)</text></g></g><g transform="translate(-278,-14) scale(1,1)"><g><path fill="none" stroke="none"/><text fill="#000000" stroke="none" font-family="Arial" font-size="13px" font-style="normal" font-weight="normal" text-decoration="none" x="917" y="214.5">+receiveWeapon(weapon)</text></g></g><g transform="translate(-278,-14) scale(1,1)"><g><path fill="none" stroke="none"/><text fill="#000000" stroke="none" font-family="Arial" font-size="13px" font-style="normal" font-weight="normal" text-decoration="none" x="917" y="229.5">+receiveAmmo(ammo)</text></g></g><g transform="translate(-278,-14) scale(1,1)"><rect fill="#C0C0C0" stroke="none" x="823" y="311" width="473.50244140625" height="344" opacity="0.2"/></g><g transform="translate(-278,-14) scale(1,1)"><rect fill="#ffffff" stroke="none" x="816" y="304" width="473.50244140625" height="344"/></g><g transform="translate(-278,-14) scale(1,1)"><path fill="none" stroke="#000000" d="M 816 304 L 1289.50244140625 304 L 1289.50244140625 648 L 816 648 L 816 304 Z Z" stroke-miterlimit="10"/></g><g transform="translate(-278,-14) scale(1,1)"><path fill="none" stroke="#000000" d="M 816 329 L 1289.50244140625 329" stroke-miterlimit="10"/></g><g transform="translate(-278,-14) scale(1,1)"><path fill="none" stroke="#000000" d="M 816 472 L 1289.50244140625 472" stroke-miterlimit="10"/></g><g transform="translate(-278,-14) scale(1,1)"><g><path fill="none" stroke="none"/><text fill="#000000" stroke="none" font-family="Arial" font-size="13px" font-style="normal" font-weight="bold" text-decoration="none" x="961.951171875" y="323.5">TimerConstrainedEventHandler</text></g></g><g transform="translate(-278,-14) scale(1,1)"><g><path fill="none" stroke="none"/><text fill="#000000" stroke="none" font-family="Arial" font-size="13px" font-style="normal" font-weight="normal" text-decoration="none" x="821" y="346.5">-start: long</text></g></g><g transform="translate(-278,-14) scale(1,1)"><g><path fill="none" stroke="none"/><text fill="#000000" stroke="none" font-family="Arial" font-size="13px" font-style="normal" font-weight="normal" text-decoration="none" x="821" y="361.5">-time: long</text></g></g><g transform="translate(-278,-14) scale(1,1)"><g><path fill="none" stroke="none"/><text fill="#000000" stroke="none" font-family="Arial" font-size="13px" font-style="normal" font-weight="normal" text-decoration="none" x="821" y="376.5">-active: boolean</text></g></g><g transform="translate(-278,-14) scale(1,1)"><g><path fill="none" stroke="none"/><text fill="#000000" stroke="none" font-family="Arial" font-size="13px" font-style="normal" font-weight="normal" text-decoration="none" x="821" y="391.5">-blocked: boolean</text></g></g><g transform="translate(-278,-14) scale(1,1)"><g><path fill="none" stroke="none"/><text fill="#000000" stroke="none" font-family="Arial" font-size="13px" font-style="normal" font-weight="normal" text-decoration="none" x="821" y="406.5">-observer: Observer</text></g></g><g transform="translate(-278,-14) scale(1,1)"><g><path fill="none" stroke="none"/><text fill="#000000" stroke="none" font-family="Arial" font-size="13px" font-style="normal" font-weight="normal" text-decoration="none" x="821" y="421.5">-requestDispatcher: RequestDispatcher</text></g></g><g transform="translate(-278,-14) scale(1,1)"><g><path fill="none" stroke="none"/><text fill="#000000" stroke="none" font-family="Arial" font-size="13px" font-style="normal" font-weight="normal" text-decoration="none" x="821" y="436.5">-acceptableTypes: AcceptableTypes</text></g></g><g transform="translate(-278,-14) scale(1,1)"><g><path fill="none" stroke="none"/><text fill="#000000" stroke="none" font-family="Arial" font-size="13px" font-style="normal" font-weight="normal" text-decoration="none" x="821" y="451.5">-notifyOnEnd: boolean</text></g></g><g transform="translate(-278,-14) scale(1,1)"><g><path fill="none" stroke="none"/><text fill="#000000" stroke="none" font-family="Arial" font-size="13px" font-style="normal" font-weight="normal" text-decoration="none" x="821" y="466.5">-error: boolean</text></g></g><g transform="translate(-278,-14) scale(1,1)"><g><path fill="none" stroke="none"/><text fill="#000000" stroke="none" font-family="Arial" font-size="13px" font-style="normal" font-weight="normal" text-decoration="none" x="821" y="489.5">+checkFinished(): boolean</text></g></g><g transform="translate(-278,-14) scale(1,1)"><g><path fill="none" stroke="none"/><text fill="#000000" stroke="none" font-family="Arial" font-size="13px" font-style="normal" font-weight="normal" text-decoration="none" x="821" y="504.5">+checkIfNotify(): boolean</text></g></g><g transform="translate(-278,-14) scale(1,1)"><g><path fill="none" stroke="none"/><text fill="#000000" stroke="none" font-family="Arial" font-size="13px" font-style="normal" font-weight="normal" text-decoration="none" x="821" y="519.5">+endHandler()</text></g></g><g transform="translate(-278,-14) scale(1,1)"><g><path fill="none" stroke="none"/><text fill="#000000" stroke="none" font-family="Arial" font-size="13px" font-style="normal" font-weight="normal" text-decoration="none" x="821" y="534.5">+isBlocked(): boolean</text></g></g><g transform="translate(-278,-14) scale(1,1)"><g><path fill="none" stroke="none"/><text fill="#000000" stroke="none" font-family="Arial" font-size="13px" font-style="normal" font-weight="normal" text-decoration="none" x="821" y="549.5">+isError(): boolean</text></g></g><g transform="translate(-278,-14) scale(1,1)"><g><path fill="none" stroke="none"/><text fill="#000000" stroke="none" font-family="Arial" font-size="13px" font-style="normal" font-weight="normal" text-decoration="none" x="821" y="564.5">+run()</text></g></g><g transform="translate(-278,-14) scale(1,1)"><g><path fill="none" stroke="none"/><text fill="#000000" stroke="none" font-family="Arial" font-size="13px" font-style="normal" font-weight="normal" text-decoration="none" x="821" y="579.5">+setActive(active: boolean)</text></g></g><g transform="translate(-278,-14) scale(1,1)"><g><path fill="none" stroke="none"/><text fill="#000000" stroke="none" font-family="Arial" font-size="13px" font-style="normal" font-weight="normal" text-decoration="none" x="821" y="594.5">+setBlocked(blocked: boolean)</text></g></g><g transform="translate(-278,-14) scale(1,1)"><g><path fill="none" stroke="none"/><text fill="#000000" stroke="none" font-family="Arial" font-size="13px" font-style="normal" font-weight="normal" text-decoration="none" x="821" y="609.5">+setNotifyOnEnd(notifyOnEnd: boolean)</text></g></g><g transform="translate(-278,-14) scale(1,1)"><g><path fill="none" stroke="none"/><text fill="#000000" stroke="none" font-family="Arial" font-size="13px" font-style="normal" font-weight="normal" text-decoration="none" x="821" y="624.5">+TimerConstrainedEventHandler(timerConstrainedEventHandler)</text></g></g><g transform="translate(-278,-14) scale(1,1)"><g><path fill="none" stroke="none"/><text fill="#000000" stroke="none" font-family="Arial" font-size="13px" font-style="normal" font-weight="normal" text-decoration="none" x="821" y="639.5">+TimerConstrainedEventHandler(observer, requestDispatcher, acceptableTypes)</text></g></g><g transform="translate(-278,-14) scale(1,1)"><rect fill="#C0C0C0" stroke="none" x="407" y="151" width="296.94873046875" height="237" opacity="0.2"/></g><g transform="translate(-278,-14) scale(1,1)"><rect fill="#ffffff" stroke="none" x="400" y="144" width="296.94873046875" height="237"/></g><g transform="translate(-278,-14) scale(1,1)"><path fill="none" stroke="#000000" d="M 400 144 L 696.94873046875 144 L 696.94873046875 381 L 400 381 L 400 144 Z Z" stroke-miterlimit="10"/></g><g transform="translate(-278,-14) scale(1,1)"><path fill="none" stroke="#000000" d="M 400 169 L 696.94873046875 169" stroke-miterlimit="10"/></g><g transform="translate(-278,-14) scale(1,1)"><path fill="none" stroke="#000000" d="M 400 179 L 696.94873046875 179" stroke-miterlimit="10"/></g><g transform="translate(-278,-14) scale(1,1)"><g><path fill="none" stroke="none"/><text fill="#000000" stroke="none" font-family="Arial" font-size="13px" font-style="italic" font-weight="bold" text-decoration="none" x="521.744384765625" y="163.5">Observer</text></g></g><g transform="translate(-278,-14) scale(1,1)"><g><path fill="none" stroke="none"/><text fill="#000000" stroke="none" font-family="Arial" font-size="13px" font-style="normal" font-weight="normal" text-decoration="none" x="405" y="196.5">+updateOnTiles(tiles: List&lt;Tile&gt; tiles)</text></g></g><g transform="translate(-278,-14) scale(1,1)"><g><path fill="none" stroke="none"/><text fill="#000000" stroke="none" font-family="Arial" font-size="13px" font-style="normal" font-weight="normal" text-decoration="none" x="405" y="211.5">+updateOnPlayers(players: List&lt;Player&gt;)</text></g></g><g transform="translate(-278,-14) scale(1,1)"><g><path fill="none" stroke="none"/><text fill="#000000" stroke="none" font-family="Arial" font-size="13px" font-style="normal" font-weight="normal" text-decoration="none" x="405" y="226.5">+updateOnDirection(direction: Direction)</text></g></g><g transform="translate(-278,-14) scale(1,1)"><g><path fill="none" stroke="none"/><text fill="#000000" stroke="none" font-family="Arial" font-size="13px" font-style="normal" font-weight="normal" text-decoration="none" x="405" y="241.5">+updateOnRoom(room)</text></g></g><g transform="translate(-278,-14) scale(1,1)"><g><path fill="none" stroke="none"/><text fill="#000000" stroke="none" font-family="Arial" font-size="13px" font-style="normal" font-weight="normal" text-decoration="none" x="405" y="256.5">+updateOnEffect(effect: String)</text></g></g><g transform="translate(-278,-14) scale(1,1)"><g><path fill="none" stroke="none"/><text fill="#000000" stroke="none" font-family="Arial" font-size="13px" font-style="normal" font-weight="normal" text-decoration="none" x="405" y="271.5">+updateOnWeapon(weapon)</text></g></g><g transform="translate(-278,-14) scale(1,1)"><g><path fill="none" stroke="none"/><text fill="#000000" stroke="none" font-family="Arial" font-size="13px" font-style="normal" font-weight="normal" text-decoration="none" x="405" y="286.5">+updateOnPowerUps(powerUps: List&lt;PowerUp&gt;)</text></g></g><g transform="translate(-278,-14) scale(1,1)"><g><path fill="none" stroke="none"/><text fill="#000000" stroke="none" font-family="Arial" font-size="13px" font-style="normal" font-weight="normal" text-decoration="none" x="405" y="301.5">+updateOnAction(action)</text></g></g><g transform="translate(-278,-14) scale(1,1)"><g><path fill="none" stroke="none"/><text fill="#000000" stroke="none" font-family="Arial" font-size="13px" font-style="normal" font-weight="normal" text-decoration="none" x="405" y="316.5">+updateOnStopSelection(skip)</text></g></g><g transform="translate(-278,-14) scale(1,1)"><g><path fill="none" stroke="none"/><text fill="#000000" stroke="none" font-family="Arial" font-size="13px" font-style="normal" font-weight="normal" text-decoration="none" x="405" y="331.5">+updateOnAmmo(ammo)</text></g></g><g transform="translate(-278,-14) scale(1,1)"><g><path fill="none" stroke="none"/><text fill="#000000" stroke="none" font-family="Arial" font-size="13px" font-style="normal" font-weight="normal" text-decoration="none" x="405" y="346.5">+concludePayment()</text></g></g><g transform="translate(-278,-14) scale(1,1)"><g><path fill="none" stroke="none"/><text fill="#000000" stroke="none" font-family="Arial" font-size="13px" font-style="normal" font-weight="normal" text-decoration="none" x="405" y="361.5">+updateOnConclusion()</text></g></g><g transform="translate(-278,-14) scale(1,1)"><g><path fill="none" stroke="none"/><text fill="#000000" stroke="none" font-family="Arial" font-size="13px" font-style="normal" font-weight="normal" text-decoration="none" x="405" y="376.5">+getMatch()</text></g></g><g transform="translate(-278,-14) scale(1,1)"><path fill="none" stroke="#000000" d="M 1054 303 L 1055 250" stroke-miterlimit="10" stroke-dasharray="3"/></g><g transform="translate(-278,-14) scale(1,1)"><path fill="#FFFFFF" stroke="none" d="M 1063.0341084092695 270.48055424221 L 1055 250 L 1046.1990337498567 270.1629113241079"/></g><g transform="translate(-278,-14) scale(1,1)"><path fill="none" stroke="#000000" d="M 1063.0341084092695 270.48055424221 L 1055 250 L 1046.1990337498567 270.1629113241079 L 1063.0341084092695 270.48055424221" stroke-miterlimit="10"/></g><g transform="translate(-278,-14) scale(1,1)"><path fill="none" stroke="#000000" d="M 698 326 L 815 375" stroke-miterlimit="10"/></g><g transform="translate(-278,-14) scale(1,1)"><path fill="#FFFFFF" stroke="none" d="M 804.0000841412431 374.95697558520567 L 815 375 L 807.2523077592492 367.1914620483339 L 794.7077352189543 366.5015301344339"/></g><g transform="translate(-278,-14) scale(1,1)"><path fill="none" stroke="#000000" d="M 804.0000841412431 374.95697558520567 L 815 375 L 807.2523077592492 367.1914620483339 L 794.7077352189543 366.5015301344339 L 804.0000841412431 374.95697558520567" stroke-miterlimit="10"/></g><g transform="translate(-278,-14) scale(1,1)"><rect fill="#C0C0C0" stroke="none" x="295" y="423" width="111.552734375" height="44" opacity="0.2"/></g><g transform="translate(-278,-14) scale(1,1)"><rect fill="#ffffff" stroke="none" x="288" y="416" width="111.552734375" height="44"/></g><g transform="translate(-278,-14) scale(1,1)"><path fill="none" stroke="#000000" d="M 288 416 L 399.552734375 416 L 399.552734375 460 L 288 460 L 288 416 Z Z" stroke-miterlimit="10"/></g><g transform="translate(-278,-14) scale(1,1)"><path fill="none" stroke="#000000" d="M 288 441 L 399.552734375 441" stroke-miterlimit="10"/></g><g transform="translate(-278,-14) scale(1,1)"><path fill="none" stroke="#000000" d="M 288 451 L 399.552734375 451" stroke-miterlimit="10"/></g><g transform="translate(-278,-14) scale(1,1)"><g><path fill="none" stroke="none"/><text fill="#000000" stroke="none" font-family="Arial" font-size="13px" font-style="normal" font-weight="bold" text-decoration="none" x="297.53369140625" y="435.5">ActionController</text></g></g><g transform="translate(-278,-14) scale(1,1)"><rect fill="#C0C0C0" stroke="none" x="487" y="511" width="52.341796875" height="44" opacity="0.2"/></g><g transform="translate(-278,-14) scale(1,1)"><rect fill="#ffffff" stroke="none" x="480" y="504" width="52.341796875" height="44"/></g><g transform="translate(-278,-14) scale(1,1)"><path fill="none" stroke="#000000" d="M 480 504 L 532.341796875 504 L 532.341796875 548 L 480 548 L 480 504 Z Z" stroke-miterlimit="10"/></g><g transform="translate(-278,-14) scale(1,1)"><path fill="none" stroke="#000000" d="M 480 529 L 532.341796875 529" stroke-miterlimit="10"/></g><g transform="translate(-278,-14) scale(1,1)"><path fill="none" stroke="#000000" d="M 480 539 L 532.341796875 539" stroke-miterlimit="10"/></g><g transform="translate(-278,-14) scale(1,1)"><g><path fill="none" stroke="none"/><text fill="#000000" stroke="none" font-family="Arial" font-size="13px" font-style="normal" font-weight="bold" text-decoration="none" x="485.937744140625" y="523.5">Choice</text></g></g><g transform="translate(-278,-14) scale(1,1)"><rect fill="#C0C0C0" stroke="none" x="319" y="495" width="129.630859375" height="44" opacity="0.2"/></g><g transform="translate(-278,-14) scale(1,1)"><rect fill="#ffffff" stroke="none" x="312" y="488" width="129.630859375" height="44"/></g><g transform="translate(-278,-14) scale(1,1)"><path fill="none" stroke="#000000" d="M 312 488 L 441.630859375 488 L 441.630859375 532 L 312 532 L 312 488 Z Z" stroke-miterlimit="10"/></g><g transform="translate(-278,-14) scale(1,1)"><path fill="none" stroke="#000000" d="M 312 513 L 441.630859375 513" stroke-miterlimit="10"/></g><g transform="translate(-278,-14) scale(1,1)"><path fill="none" stroke="#000000" d="M 312 523 L 441.630859375 523" stroke-miterlimit="10"/></g><g transform="translate(-278,-14) scale(1,1)"><g><path fill="none" stroke="none"/><text fill="#000000" stroke="none" font-family="Arial" font-size="13px" font-style="normal" font-weight="bold" text-decoration="none" x="320.45458984375" y="507.5">DamagedController</text></g></g><g transform="translate(-278,-14) scale(1,1)"><rect fill="#C0C0C0" stroke="none" x="695" y="423" width="107.24267578125" height="44" opacity="0.2"/></g><g transform="translate(-278,-14) scale(1,1)"><rect fill="#ffffff" stroke="none" x="688" y="416" width="107.24267578125" height="44"/></g><g transform="translate(-278,-14) scale(1,1)"><path fill="none" stroke="#000000" d="M 688 416 L 795.24267578125 416 L 795.24267578125 460 L 688 460 L 688 416 Z Z" stroke-miterlimit="10"/></g><g transform="translate(-278,-14) scale(1,1)"><path fill="none" stroke="#000000" d="M 688 441 L 795.24267578125 441" stroke-miterlimit="10"/></g><g transform="translate(-278,-14) scale(1,1)"><path fill="none" stroke="#000000" d="M 688 451 L 795.24267578125 451" stroke-miterlimit="10"/></g><g transform="translate(-278,-14) scale(1,1)"><g><path fill="none" stroke="none"/><text fill="#000000" stroke="none" font-family="Arial" font-size="13px" font-style="normal" font-weight="bold" text-decoration="none" x="695.74365234375" y="435.5">GameController</text></g></g><g transform="translate(-278,-14) scale(1,1)"><rect fill="#C0C0C0" stroke="none" x="383" y="575" width="107.22998046875" height="44" opacity="0.2"/></g><g transform="translate(-278,-14) scale(1,1)"><rect fill="#ffffff" stroke="none" x="376" y="568" width="107.22998046875" height="44"/></g><g transform="translate(-278,-14) scale(1,1)"><path fill="none" stroke="#000000" d="M 376 568 L 483.22998046875 568 L 483.22998046875 612 L 376 612 L 376 568 Z Z" stroke-miterlimit="10"/></g><g transform="translate(-278,-14) scale(1,1)"><path fill="none" stroke="#000000" d="M 376 593 L 483.22998046875 593" stroke-miterlimit="10"/></g><g transform="translate(-278,-14) scale(1,1)"><path fill="none" stroke="#000000" d="M 376 603 L 483.22998046875 603" stroke-miterlimit="10"/></g><g transform="translate(-278,-14) scale(1,1)"><g><path fill="none" stroke="none"/><text fill="#000000" stroke="none" font-family="Arial" font-size="13px" font-style="normal" font-weight="bold" text-decoration="none" x="384.93701171875" y="587.5">EffectController</text></g></g><g transform="translate(-278,-14) scale(1,1)"><rect fill="#C0C0C0" stroke="none" x="655" y="495" width="125.3017578125" height="44" opacity="0.2"/></g><g transform="translate(-278,-14) scale(1,1)"><rect fill="#ffffff" stroke="none" x="648" y="488" width="125.3017578125" height="44"/></g><g transform="translate(-278,-14) scale(1,1)"><path fill="none" stroke="#000000" d="M 648 488 L 773.3017578125 488 L 773.3017578125 532 L 648 532 L 648 488 Z Z" stroke-miterlimit="10"/></g><g transform="translate(-278,-14) scale(1,1)"><path fill="none" stroke="#000000" d="M 648 513 L 773.3017578125 513" stroke-miterlimit="10"/></g><g transform="translate(-278,-14) scale(1,1)"><path fill="none" stroke="#000000" d="M 648 523 L 773.3017578125 523" stroke-miterlimit="10"/></g><g transform="translate(-278,-14) scale(1,1)"><g><path fill="none" stroke="none"/><text fill="#000000" stroke="none" font-family="Arial" font-size="13px" font-style="normal" font-weight="bold" text-decoration="none" x="656.82275390625" y="507.5">PaymentController</text></g></g><g transform="translate(-278,-14) scale(1,1)"><rect fill="#C0C0C0" stroke="none" x="607" y="575" width="121.4296875" height="44" opacity="0.2"/></g><g transform="translate(-278,-14) scale(1,1)"><rect fill="#ffffff" stroke="none" x="600" y="568" width="121.4296875" height="44"/></g><g transform="translate(-278,-14) scale(1,1)"><path fill="none" stroke="#000000" d="M 600 568 L 721.4296875 568 L 721.4296875 612 L 600 612 L 600 568 Z Z" stroke-miterlimit="10"/></g><g transform="translate(-278,-14) scale(1,1)"><path fill="none" stroke="#000000" d="M 600 593 L 721.4296875 593" stroke-miterlimit="10"/></g><g transform="translate(-278,-14) scale(1,1)"><path fill="none" stroke="#000000" d="M 600 603 L 721.4296875 603" stroke-miterlimit="10"/></g><g transform="translate(-278,-14) scale(1,1)"><g><path fill="none" stroke="none"/><text fill="#000000" stroke="none" font-family="Arial" font-size="13px" font-style="normal" font-weight="bold" text-decoration="none" x="608.445068359375" y="587.5">WeaponController</text></g></g><g transform="translate(-278,-14) scale(1,1)"><rect fill="#C0C0C0" stroke="none" x="567" y="511" width="63.18359375" height="44" opacity="0.2"/></g><g transform="translate(-278,-14) scale(1,1)"><rect fill="#ffffff" stroke="none" x="560" y="504" width="63.18359375" height="44"/></g><g transform="translate(-278,-14) scale(1,1)"><path fill="none" stroke="#000000" d="M 560 504 L 623.18359375 504 L 623.18359375 548 L 560 548 L 560 504 Z Z" stroke-miterlimit="10"/></g><g transform="translate(-278,-14) scale(1,1)"><path fill="none" stroke="#000000" d="M 560 529 L 623.18359375 529" stroke-miterlimit="10"/></g><g transform="translate(-278,-14) scale(1,1)"><path fill="none" stroke="#000000" d="M 560 539 L 623.18359375 539" stroke-miterlimit="10"/></g><g transform="translate(-278,-14) scale(1,1)"><g><path fill="none" stroke="none"/><text fill="#000000" stroke="none" font-family="Arial" font-size="13px" font-style="normal" font-weight="bold" text-decoration="none" x="565.937744140625" y="523.5">Spawner</text></g></g><g transform="translate(-278,-14) scale(1,1)"><path fill="none" stroke="#000000" d="M 370 415 L 408 382" stroke-miterlimit="10"/></g><g transform="translate(-278,-14) scale(1,1)"><path fill="#FFFFFF" stroke="none" d="M 398.17393705904243 401.68371121207434 L 408 382 L 387.1334385851076 388.9704099390585"/></g><g transform="translate(-278,-14) scale(1,1)"><path fill="none" stroke="#000000" d="M 398.17393705904243 401.68371121207434 L 408 382 L 387.1334385851076 388.9704099390585 L 398.17393705904243 401.68371121207434" stroke-miterlimit="10"/></g><g transform="translate(-278,-14) scale(1,1)"><path fill="none" stroke="#000000" d="M 510 503 L 529 382" stroke-miterlimit="10"/></g><g transform="translate(-278,-14) scale(1,1)"><path fill="#FFFFFF" stroke="none" d="M 534.1641733984458 403.38530600928556 L 529 382 L 517.5299271323489 400.77331692617946"/></g><g transform="translate(-278,-14) scale(1,1)"><path fill="none" stroke="#000000" d="M 534.1641733984458 403.38530600928556 L 529 382 L 517.5299271323489 400.77331692617946 L 534.1641733984458 403.38530600928556" stroke-miterlimit="10"/></g><g transform="translate(-278,-14) scale(1,1)"><path fill="none" stroke="#000000" d="M 392 487 L 465 382" stroke-miterlimit="10"/></g><g transform="translate(-278,-14) scale(1,1)"><path fill="#FFFFFF" stroke="none" d="M 460.3101433997326 403.4943072712039 L 465 382 L 446.48500016678287 393.8825410235341"/></g><g transform="translate(-278,-14) scale(1,1)"><path fill="none" stroke="#000000" d="M 460.3101433997326 403.4943072712039 L 465 382 L 446.48500016678287 393.8825410235341 L 460.3101433997326 403.4943072712039" stroke-miterlimit="10"/></g><g transform="translate(-278,-14) scale(1,1)"><path fill="none" stroke="#000000" d="M 716 415 L 680 382" stroke-miterlimit="10"/></g><g transform="translate(-278,-14) scale(1,1)"><path fill="#FFFFFF" stroke="none" d="M 700.6718653374654 389.52821250162987 L 680 382 L 689.2939660497811 401.94046627001273"/></g><g transform="translate(-278,-14) scale(1,1)"><path fill="none" stroke="#000000" d="M 700.6718653374654 389.52821250162987 L 680 382 L 689.2939660497811 401.94046627001273 L 700.6718653374654 389.52821250162987" stroke-miterlimit="10"/></g><g transform="translate(-278,-14) scale(1,1)"><path fill="none" stroke="#000000" d="M 437 567 L 504 382" stroke-miterlimit="10"/></g><g transform="translate(-278,-14) scale(1,1)"><path fill="#FFFFFF" stroke="none" d="M 504.9947367180201 403.977499831915 L 504 382 L 489.16294591413396 398.24382424348056"/></g><g transform="translate(-278,-14) scale(1,1)"><path fill="none" stroke="#000000" d="M 504.9947367180201 403.977499831915 L 504 382 L 489.16294591413396 398.24382424348056 L 504.9947367180201 403.977499831915" stroke-miterlimit="10"/></g><g transform="translate(-278,-14) scale(1,1)"><path fill="none" stroke="#000000" d="M 587 503 L 568 382" stroke-miterlimit="10"/></g><g transform="translate(-278,-14) scale(1,1)"><path fill="#FFFFFF" stroke="none" d="M 579.4700728676511 400.77331692617946 L 568 382 L 562.8358266015542 403.38530600928556"/></g><g transform="translate(-278,-14) scale(1,1)"><path fill="none" stroke="#000000" d="M 579.4700728676511 400.77331692617946 L 568 382 L 562.8358266015542 403.38530600928556 L 579.4700728676511 400.77331692617946" stroke-miterlimit="10"/></g><g transform="translate(-278,-14) scale(1,1)"><path fill="none" stroke="#000000" d="M 695 487 L 626 382" stroke-miterlimit="10"/></g><g transform="translate(-278,-14) scale(1,1)"><path fill="#FFFFFF" stroke="none" d="M 644.1980667134673 394.3624580036575 L 626 382 L 630.1263984910578 403.609554264098"/></g><g transform="translate(-278,-14) scale(1,1)"><path fill="none" stroke="#000000" d="M 644.1980667134673 394.3624580036575 L 626 382 L 630.1263984910578 403.609554264098 L 644.1980667134673 394.3624580036575" stroke-miterlimit="10"/></g><g transform="translate(-278,-14) scale(1,1)"><path fill="none" stroke="#000000" d="M 652 567 L 589 382" stroke-miterlimit="10"/></g><g transform="translate(-278,-14) scale(1,1)"><path fill="#FFFFFF" stroke="none" d="M 603.5217068645312 398.5263435078854 L 589 382 L 587.5825078356693 403.95428696095735"/></g><g transform="translate(-278,-14) scale(1,1)"><path fill="none" stroke="#000000" d="M 603.5217068645312 398.5263435078854 L 589 382 L 587.5825078356693 403.95428696095735 L 603.5217068645312 398.5263435078854" stroke-miterlimit="10"/></g></g></svg>