<svg version="1.1" xmlns="http://www.w3.org/2000/svg" xmlns:xlink="http://www.w3.org/1999/xlink" width="813.75244140625" height="620"><defs/><g><g transform="translate(-486,-374) scale(1,1)"><rect fill="#C0C0C0" stroke="none" x="503" y="647" width="440" height="344" opacity="0.2"/></g><g transform="translate(-486,-374) scale(1,1)"><rect fill="#ffffff" stroke="none" x="496" y="640" width="440" height="344"/></g><g transform="translate(-486,-374) scale(1,1)"><path fill="none" stroke="#000000" d="M 496 640 L 936 640 L 936 984 L 496 984 L 496 640 Z Z" stroke-miterlimit="10"/></g><g transform="translate(-486,-374) scale(1,1)"><path fill="none" stroke="#000000" d="M 496 665 L 936 665" stroke-miterlimit="10"/></g><g transform="translate(-486,-374) scale(1,1)"><path fill="none" stroke="#000000" d="M 496 808 L 936 808" stroke-miterlimit="10"/></g><g transform="translate(-486,-374) scale(1,1)"><g><path fill="none" stroke="none"/><text fill="#000000" stroke="none" font-family="Arial" font-size="13px" font-style="normal" font-weight="bold" text-decoration="none" x="660.721435546875" y="659.5">RequestDispatcher</text></g></g><g transform="translate(-486,-374) scale(1,1)"><g><path fill="none" stroke="none"/><text fill="#000000" stroke="none" font-family="Arial" font-size="13px" font-style="normal" font-weight="normal" text-decoration="none" x="501" y="682.5">-acceptableTypes: AcceptableTypes</text></g></g><g transform="translate(-486,-374) scale(1,1)"><g><path fill="none" stroke="none"/><text fill="#000000" stroke="none" font-family="Arial" font-size="13px" font-style="normal" font-weight="normal" text-decoration="none" x="501" y="697.5">-block: boolean</text></g></g><g transform="translate(-486,-374) scale(1,1)"><g><path fill="none" stroke="none"/><text fill="#000000" stroke="none" font-family="Arial" font-size="13px" font-style="normal" font-weight="normal" text-decoration="none" x="501" y="712.5">-eventHelper: EventHelper</text></g></g><g transform="translate(-486,-374) scale(1,1)"><g><path fill="none" stroke="none"/><text fill="#000000" stroke="none" font-family="Arial" font-size="13px" font-style="normal" font-weight="normal" text-decoration="none" x="501" y="727.5">-lastRequest: long</text></g></g><g transform="translate(-486,-374) scale(1,1)"><g><path fill="none" stroke="none"/><text fill="#000000" stroke="none" font-family="Arial" font-size="13px" font-style="normal" font-weight="normal" text-decoration="none" x="501" y="742.5">-linkedVirtualView: View</text></g></g><g transform="translate(-486,-374) scale(1,1)"><g><path fill="none" stroke="none"/><text fill="#000000" stroke="none" font-family="Arial" font-size="13px" font-style="normal" font-weight="normal" text-decoration="none" x="501" y="757.5">~lock: Object</text></g></g><g transform="translate(-486,-374) scale(1,1)"><g><path fill="none" stroke="none"/><text fill="#000000" stroke="none" font-family="Arial" font-size="13px" font-style="normal" font-weight="normal" text-decoration="none" x="501" y="772.5">-networkTimeoutController: NetworkTimeoutControllerServer</text></g></g><g transform="translate(-486,-374) scale(1,1)"><g><path fill="none" stroke="none"/><text fill="#000000" stroke="none" font-family="Arial" font-size="13px" font-style="normal" font-weight="normal" text-decoration="none" x="501" y="787.5">-observerTypes: Map&lt;ReceivingType, EventHandler&gt;</text></g></g><g transform="translate(-486,-374) scale(1,1)"><g><path fill="none" stroke="none"/><text fill="#000000" stroke="none" font-family="Arial" font-size="13px" font-style="normal" font-weight="normal" text-decoration="none" x="501" y="802.5">-viewUpdater: ViewUpdater</text></g></g><g transform="translate(-486,-374) scale(1,1)"><g><path fill="none" stroke="none"/><text fill="#000000" stroke="none" font-family="Arial" font-size="13px" font-style="normal" font-weight="normal" text-decoration="none" x="501" y="825.5">+block()</text></g></g><g transform="translate(-486,-374) scale(1,1)"><g><path fill="none" stroke="none"/><text fill="#000000" stroke="none" font-family="Arial" font-size="13px" font-style="normal" font-weight="normal" text-decoration="none" x="501" y="840.5">+clear()</text></g></g><g transform="translate(-486,-374) scale(1,1)"><g><path fill="none" stroke="none"/><text fill="#000000" stroke="none" font-family="Arial" font-size="13px" font-style="normal" font-weight="normal" text-decoration="none" x="501" y="855.5">+getLastRequest(): long</text></g></g><g transform="translate(-486,-374) scale(1,1)"><g><path fill="none" stroke="none"/><text fill="#000000" stroke="none" font-family="Arial" font-size="13px" font-style="normal" font-weight="normal" text-decoration="none" x="501" y="870.5">+getLinkedVirtualView(): View</text></g></g><g transform="translate(-486,-374) scale(1,1)"><g><path fill="none" stroke="none"/><text fill="#000000" stroke="none" font-family="Arial" font-size="13px" font-style="normal" font-weight="normal" text-decoration="none" x="501" y="885.5">+getObserverTypes(): Map&lt;ReceivingType, EventHandler&gt;</text></g></g><g transform="translate(-486,-374) scale(1,1)"><g><path fill="none" stroke="none"/><text fill="#000000" stroke="none" font-family="Arial" font-size="13px" font-style="normal" font-weight="normal" text-decoration="none" x="501" y="900.5">+getViewUpdater(): ViewUpdater</text></g></g><g transform="translate(-486,-374) scale(1,1)"><g><path fill="none" stroke="none"/><text fill="#000000" stroke="none" font-family="Arial" font-size="13px" font-style="normal" font-weight="normal" text-decoration="none" x="501" y="915.5">+RequestDispatcher(viewUpdater: ViewUpdater, linkedVirtualView: View)</text></g></g><g transform="translate(-486,-374) scale(1,1)"><g><path fill="none" stroke="none"/><text fill="#000000" stroke="none" font-family="Arial" font-size="13px" font-style="normal" font-weight="normal" text-decoration="none" x="501" y="930.5">+setEventHelper(match, player)</text></g></g><g transform="translate(-486,-374) scale(1,1)"><g><path fill="none" stroke="none"/><text fill="#000000" stroke="none" font-family="Arial" font-size="13px" font-style="normal" font-weight="normal" text-decoration="none" x="501" y="945.5">+setView(viewUpdater: ViewUpdater, linkedVirtualView: View)</text></g></g><g transform="translate(-486,-374) scale(1,1)"><g><path fill="none" stroke="none"/><text fill="#000000" stroke="none" font-family="Arial" font-size="13px" font-style="normal" font-weight="normal" text-decoration="none" x="501" y="960.5">+updateView(acceptableTypes: AcceptableTypes)</text></g></g><g transform="translate(-486,-374) scale(1,1)"><g><path fill="none" stroke="none"/><text fill="#000000" stroke="none" font-family="Arial" font-size="13px" font-style="normal" font-weight="normal" text-decoration="none" x="501" y="975.5">+updateView()</text></g></g><g transform="translate(-486,-374) scale(1,1)"><rect fill="#C0C0C0" stroke="none" x="1015" y="711" width="281.75244140625" height="216" opacity="0.2"/></g><g transform="translate(-486,-374) scale(1,1)"><rect fill="#ffffff" stroke="none" x="1008" y="704" width="281.75244140625" height="216"/></g><g transform="translate(-486,-374) scale(1,1)"><path fill="none" stroke="#000000" d="M 1008 704 L 1289.75244140625 704 L 1289.75244140625 920 L 1008 920 L 1008 704 Z Z" stroke-miterlimit="10"/></g><g transform="translate(-486,-374) scale(1,1)"><path fill="none" stroke="#000000" d="M 1008 742 L 1289.75244140625 742" stroke-miterlimit="10"/></g><g transform="translate(-486,-374) scale(1,1)"><g><path fill="none" stroke="none"/><text fill="#000000" stroke="none" font-family="Arial" font-size="13px" font-style="normal" font-weight="normal" text-decoration="none" x="1116.7158203125" y="721.5">«interface»</text></g></g><g transform="translate(-486,-374) scale(1,1)"><g><path fill="none" stroke="none"/><text fill="#000000" stroke="none" font-family="Arial" font-size="13px" font-style="normal" font-weight="bold" text-decoration="none" x="1109.4921875" y="736.5">EventHandler</text></g></g><g transform="translate(-486,-374) scale(1,1)"><g><path fill="none" stroke="none"/><text fill="#000000" stroke="none" font-family="Arial" font-size="13px" font-style="normal" font-weight="normal" text-decoration="none" x="1013" y="759.5">+setActive(active: boolean)</text></g></g><g transform="translate(-486,-374) scale(1,1)"><g><path fill="none" stroke="none"/><text fill="#000000" stroke="none" font-family="Arial" font-size="13px" font-style="normal" font-weight="normal" text-decoration="none" x="1013" y="774.5">+receiveAction(action)</text></g></g><g transform="translate(-486,-374) scale(1,1)"><g><path fill="none" stroke="none"/><text fill="#000000" stroke="none" font-family="Arial" font-size="13px" font-style="normal" font-weight="normal" text-decoration="none" x="1013" y="789.5">+receiveDirection(direction: Direction)</text></g></g><g transform="translate(-486,-374) scale(1,1)"><g><path fill="none" stroke="none"/><text fill="#000000" stroke="none" font-family="Arial" font-size="13px" font-style="normal" font-weight="normal" text-decoration="none" x="1013" y="804.5">+receiveEffect(effect: String)</text></g></g><g transform="translate(-486,-374) scale(1,1)"><g><path fill="none" stroke="none"/><text fill="#000000" stroke="none" font-family="Arial" font-size="13px" font-style="normal" font-weight="normal" text-decoration="none" x="1013" y="819.5">+receivePlayer(players: List&lt;Player&gt;)</text></g></g><g transform="translate(-486,-374) scale(1,1)"><g><path fill="none" stroke="none"/><text fill="#000000" stroke="none" font-family="Arial" font-size="13px" font-style="normal" font-weight="normal" text-decoration="none" x="1013" y="834.5">+receivePowerUps(powerUps: List&lt;PowerUp&gt;)</text></g></g><g transform="translate(-486,-374) scale(1,1)"><g><path fill="none" stroke="none"/><text fill="#000000" stroke="none" font-family="Arial" font-size="13px" font-style="normal" font-weight="normal" text-decoration="none" x="1013" y="849.5">+receiveRoom(color)</text></g></g><g transform="translate(-486,-374) scale(1,1)"><g><path fill="none" stroke="none"/><text fill="#000000" stroke="none" font-family="Arial" font-size="13px" font-style="normal" font-weight="normal" text-decoration="none" x="1013" y="864.5">+receiveStop()</text></g></g><g transform="translate(-486,-374) scale(1,1)"><g><path fill="none" stroke="none"/><text fill="#000000" stroke="none" font-family="Arial" font-size="13px" font-style="normal" font-weight="normal" text-decoration="none" x="1013" y="879.5">+receiveTiles(tiles: List&lt;Tile&gt;)</text></g></g><g transform="translate(-486,-374) scale(1,1)"><g><path fill="none" stroke="none"/><text fill="#000000" stroke="none" font-family="Arial" font-size="13px" font-style="normal" font-weight="normal" text-decoration="none" x="1013" y="894.5">+receiveWeapon(weapon)</text></g></g><g transform="translate(-486,-374) scale(1,1)"><g><path fill="none" stroke="none"/><text fill="#000000" stroke="none" font-family="Arial" font-size="13px" font-style="normal" font-weight="normal" text-decoration="none" x="1013" y="909.5">+receiveAmmo(ammo)</text></g></g><g transform="translate(-486,-374) scale(1,1)"><path fill="none" stroke="#000000" d="M 1007 812 L 937 812" stroke-miterlimit="10"/></g><g transform="translate(-486,-374) scale(1,1)"><path fill="#FFFFFF" stroke="none" d="M 947.1626748576241 807.790482243984 L 937 812 L 947.1626748576241 816.209517756016 L 959 812"/></g><g transform="translate(-486,-374) scale(1,1)"><path fill="none" stroke="#000000" d="M 947.1626748576241 807.790482243984 L 937 812 L 947.1626748576241 816.209517756016 L 959 812 L 947.1626748576241 807.790482243984" stroke-miterlimit="10"/></g><g transform="translate(-486,-374) scale(1,1)"><rect fill="#C0C0C0" stroke="none" x="551" y="391" width="340.75390625" height="210" opacity="0.2"/></g><g transform="translate(-486,-374) scale(1,1)"><rect fill="#ffffff" stroke="none" x="544" y="384" width="340.75390625" height="210"/></g><g transform="translate(-486,-374) scale(1,1)"><path fill="none" stroke="#000000" d="M 544 384 L 884.75390625 384 L 884.75390625 594 L 544 594 L 544 384 Z Z" stroke-miterlimit="10"/></g><g transform="translate(-486,-374) scale(1,1)"><path fill="none" stroke="#000000" d="M 544 422 L 884.75390625 422" stroke-miterlimit="10"/></g><g transform="translate(-486,-374) scale(1,1)"><g><path fill="none" stroke="none"/><text fill="#000000" stroke="none" font-family="Arial" font-size="13px" font-style="normal" font-weight="normal" text-decoration="none" x="682.216552734375" y="401.5">«interface»</text></g></g><g transform="translate(-486,-374) scale(1,1)"><g><path fill="none" stroke="none"/><text fill="#000000" stroke="none" font-family="Arial" font-size="13px" font-style="normal" font-weight="bold" text-decoration="none" x="633.80615234375" y="416.5">RequestDispatcherInterface</text></g></g><g transform="translate(-486,-374) scale(1,1)"><g><path fill="none" stroke="none"/><text fill="#000000" stroke="none" font-family="Arial" font-size="13px" font-style="normal" font-weight="normal" text-decoration="none" x="549" y="439.5">+receiveAck()</text></g></g><g transform="translate(-486,-374) scale(1,1)"><g><path fill="none" stroke="none"/><text fill="#000000" stroke="none" font-family="Arial" font-size="13px" font-style="normal" font-weight="normal" text-decoration="none" x="549" y="454.5">+receiveAction(subAction: String)</text></g></g><g transform="translate(-486,-374) scale(1,1)"><g><path fill="none" stroke="none"/><text fill="#000000" stroke="none" font-family="Arial" font-size="13px" font-style="normal" font-weight="normal" text-decoration="none" x="549" y="469.5">+receiveAmmo(ammo: String)</text></g></g><g transform="translate(-486,-374) scale(1,1)"><g><path fill="none" stroke="none"/><text fill="#000000" stroke="none" font-family="Arial" font-size="13px" font-style="normal" font-weight="normal" text-decoration="none" x="549" y="484.5">+receiveDirection(direction: String)</text></g></g><g transform="translate(-486,-374) scale(1,1)"><g><path fill="none" stroke="none"/><text fill="#000000" stroke="none" font-family="Arial" font-size="13px" font-style="normal" font-weight="normal" text-decoration="none" x="549" y="499.5">+receiveEffect(effect: String)</text></g></g><g transform="translate(-486,-374) scale(1,1)"><g><path fill="none" stroke="none"/><text fill="#000000" stroke="none" font-family="Arial" font-size="13px" font-style="normal" font-weight="normal" text-decoration="none" x="549" y="514.5">+receivePlayers(players: ArrayList&lt;String&gt;)</text></g></g><g transform="translate(-486,-374) scale(1,1)"><g><path fill="none" stroke="none"/><text fill="#000000" stroke="none" font-family="Arial" font-size="13px" font-style="normal" font-weight="normal" text-decoration="none" x="549" y="529.5">+receivePowerUps(powerUps: ArrayList&lt;ViewPowerUp&gt;)</text></g></g><g transform="translate(-486,-374) scale(1,1)"><g><path fill="none" stroke="none"/><text fill="#000000" stroke="none" font-family="Arial" font-size="13px" font-style="normal" font-weight="normal" text-decoration="none" x="549" y="544.5">+receiveRoom(room: String)</text></g></g><g transform="translate(-486,-374) scale(1,1)"><g><path fill="none" stroke="none"/><text fill="#000000" stroke="none" font-family="Arial" font-size="13px" font-style="normal" font-weight="normal" text-decoration="none" x="549" y="559.5">+receiveStopAction()</text></g></g><g transform="translate(-486,-374) scale(1,1)"><g><path fill="none" stroke="none"/><text fill="#000000" stroke="none" font-family="Arial" font-size="13px" font-style="normal" font-weight="normal" text-decoration="none" x="549" y="574.5">+receiveTiles(viewTiles: ArrayList&lt;ViewTileCoords&gt;)</text></g></g><g transform="translate(-486,-374) scale(1,1)"><g><path fill="none" stroke="none"/><text fill="#000000" stroke="none" font-family="Arial" font-size="13px" font-style="normal" font-weight="normal" text-decoration="none" x="549" y="589.5">+receiveWeapon(weapon: String)</text></g></g><g transform="translate(-486,-374) scale(1,1)"><path fill="none" stroke="#000000" d="M 715 639 L 715 595" stroke-miterlimit="10" stroke-dasharray="3"/></g><g transform="translate(-486,-374) scale(1,1)"><path fill="#FFFFFF" stroke="none" d="M 723.419035512032 615.3253497152483 L 715 595 L 706.580964487968 615.3253497152483"/></g><g transform="translate(-486,-374) scale(1,1)"><path fill="none" stroke="#000000" d="M 723.419035512032 615.3253497152483 L 715 595 L 706.580964487968 615.3253497152483 L 723.419035512032 615.3253497152483" stroke-miterlimit="10"/></g></g></svg>